<svg width="1200" height="900" viewBox="0 0 1200 900" fill="none" xmlns="http://www.w3.org/2000/svg">
<rect width="1200" height="900" rx="48" fill="#F6EAE6"/>
<rect x="80" y="80" width="1040" height="740" rx="36" fill="#FFF8F4"/>
<circle cx="600" cy="380" r="180" fill="#F4C9C1"/>
<path d="M600 225C552 300 498 336 438 372C486 396 528 438 564 498C576 432 606 378 654 336C684 309 720 282 762 255C702 243 648 231 600 225Z" fill="#B55B6A"/>
<path d="M600 258C582 330 546 396 492 456C564 450 636 450 708 456C654 396 618 330 600 258Z" fill="#D77F88"/>
<path d="M450 594C504 564 552 552 600 552C648 552 696 564 750 594" stroke="#8E4A56" stroke-width="28" stroke-linecap="round"/>
<path d="M600 552V696" stroke="#6A7A4A" stroke-width="26" stroke-linecap="round"/>
<path d="M600 648C564 624 522 606 474 594" stroke="#7D9254" stroke-width="18" stroke-linecap="round"/>
<path d="M600 636C636 612 678 594 726 582" stroke="#7D9254" stroke-width="18" stroke-linecap="round"/>
<text x="600" y="780" text-anchor="middle" fill="#8E4A56" font-family="Georgia, serif" font-size="42">Details by Mima</text>
</svg>
